<svg version="1.1" id="Layer_1" xmlns="http://www.w3.org/2000/svg" xmlns:xlink="http://www.w3.org/1999/xlink" x="0px" y="0px"
	 width="100%" viewBox="0 0 500 500" enable-background="new 0 0 500 500" xml:space="preserve">
<path fill="#010101" opacity="1.000000" stroke="none" 
	d="
M1.000000,184.000000 
	C1.000000,122.681854 1.000000,61.863712 1.000000,1.022784 
	C167.609863,1.022784 334.219727,1.022784 500.914795,1.022784 
	C500.914795,167.568207 500.914795,334.136475 500.914795,500.852356 
	C334.333435,500.852356 167.666733,500.852356 1.000000,500.852356 
	C1.000000,395.446808 1.000000,289.973419 1.000000,184.000000 
M88.463760,171.049301 
	C89.196205,172.489166 89.657059,174.174896 90.703346,175.330643 
	C100.532051,186.187698 110.658875,196.781128 120.291756,207.807022 
	C126.817528,215.276489 129.093643,224.210236 128.422516,234.270737 
	C127.015160,255.368240 126.299309,276.510803 125.105957,297.623962 
	C123.940956,318.235352 122.382347,338.824951 121.281334,359.439331 
	C120.340088,377.062317 119.300018,394.704681 119.225647,412.342346 
	C119.149162,430.478027 130.545197,442.162537 148.956055,444.333984 
	C163.982819,446.106323 178.747391,435.624237 182.564545,419.751740 
	C183.906113,414.173279 184.083878,408.186340 183.946060,402.406097 
	C183.604782,388.090698 182.816925,373.784943 182.132568,359.478912 
	C180.262482,320.386353 178.553482,281.284454 176.362152,242.209717 
	C175.469940,226.300217 177.446716,211.013947 182.913193,196.100647 
	C189.501480,178.126938 196.094879,160.154358 202.535782,142.127609 
	C207.336807,128.690582 209.730011,114.820541 205.070847,100.997597 
	C197.077530,77.282921 179.172333,64.984024 155.300552,60.969917 
	C148.310608,59.794533 140.955795,60.789104 132.545883,60.789104 
	C134.324722,63.247574 135.195145,64.592613 136.204803,65.823433 
	C144.127167,75.481262 152.105164,85.093552 160.008926,94.766518 
	C168.079788,104.643967 167.748260,111.040199 157.617065,118.841393 
	C134.926331,136.313644 111.928818,153.387512 88.463760,171.049301 
M422.174591,269.499908 
	C422.082977,316.827484 422.440979,364.161621 421.749908,411.480438 
	C421.245361,446.028442 395.918213,470.985474 361.423157,471.161316 
	C290.263184,471.524017 219.098862,471.481415 147.938736,471.125732 
	C124.779320,471.010010 107.186462,459.991425 95.630501,439.875214 
	C89.588676,429.357788 87.785500,417.776703 87.805969,405.717010 
	C87.912323,343.054596 87.867538,280.391876 87.814629,217.729309 
	C87.812881,215.658554 87.852837,212.985046 86.677032,211.632584 
	C83.338181,207.792130 79.378632,204.491287 75.038063,200.386581 
	C74.852821,202.660782 74.656807,203.945068 74.656700,205.229355 
	C74.651100,273.891541 74.501991,342.554230 74.731049,411.215668 
	C74.869232,452.636444 107.609535,484.909515 149.024872,484.941315 
	C219.853546,484.995697 290.682312,485.001221 361.511017,484.940613 
	C402.355133,484.905670 434.824585,452.454498 434.882568,411.523560 
	C434.979584,343.028107 434.920532,274.532440 434.913086,206.036850 
	C434.912903,204.477448 434.744598,202.918060 434.600708,200.421295 
	C431.548004,203.194656 429.380920,205.467545 426.908905,207.337265 
	C423.286896,210.076797 421.993347,213.351181 422.076355,218.005402 
	C422.376495,234.832123 422.181671,251.667664 422.174591,269.499908 
M343.299561,290.696075 
	C339.273560,291.644653 340.387207,295.148651 340.195801,297.632263 
	C337.893890,327.503113 335.614990,357.377319 333.651001,387.271759 
	C332.976257,397.542297 332.320496,407.948029 333.214233,418.155579 
	C334.486481,432.685638 346.199310,443.197845 359.995331,443.868683 
	C373.543274,444.527496 385.277405,435.558685 388.387848,421.414062 
	C389.475830,416.466522 389.481354,411.136475 389.129608,406.039886 
	C386.574402,369.018097 383.766418,332.013824 381.157806,294.995605 
	C380.925110,291.693604 379.739655,290.014374 376.417755,290.056854 
	C365.652924,290.194580 354.888306,290.348663 343.299561,290.696075 
M249.904984,308.153046 
	C246.193970,310.522583 241.298096,312.082520 239.013184,315.426483 
	C233.914261,322.888794 228.164139,330.781677 226.155746,339.317139 
	C219.955994,365.665405 221.664215,392.729401 224.423538,419.247742 
	C226.516739,439.364532 249.420853,449.464600 265.897156,439.726532 
	C277.149719,433.075897 281.634460,422.382233 281.896759,409.880646 
	C282.214569,394.734741 282.154907,379.573792 281.910248,364.424988 
	C281.625916,346.817291 276.902100,330.573700 265.752075,316.599457 
	C261.917297,311.793365 257.455261,307.878448 249.904984,308.153046 
M345.500000,20.006924 
	C300.342529,20.003157 255.184952,20.036388 210.027939,19.891806 
	C207.645737,19.884178 205.051559,18.734982 202.936020,17.477835 
	C199.094208,15.194864 195.680969,14.927010 191.799713,17.460424 
	C189.763245,18.789701 187.130554,19.856819 184.747864,19.896866 
	C171.087708,20.126465 157.420242,19.880159 143.758102,20.039875 
	C102.758354,20.519182 74.853058,48.631245 74.679756,89.581215 
	C74.602898,107.743980 74.665039,125.907372 74.684471,144.070450 
	C74.686180,145.663025 74.840126,147.255432 74.974083,149.818222 
	C77.654282,147.988922 79.522102,146.349945 81.679665,145.314941 
	C86.645142,142.932983 88.148682,139.343628 88.009415,133.792740 
	C87.612503,117.973633 87.473633,102.120255 88.054794,86.310570 
	C89.058273,59.012241 107.022217,38.079121 134.110428,34.909412 
	C152.211258,32.791351 170.686188,33.852276 188.994995,33.575962 
	C190.071365,33.559723 191.146835,34.598263 192.244156,34.645256 
	C195.539825,34.786407 198.853943,34.811275 202.145142,34.616272 
	C203.915024,34.511406 205.652420,33.512535 207.404953,33.511139 
	C260.227478,33.469017 313.050293,33.429436 365.872498,33.575848 
	C377.919769,33.609238 389.922241,35.820469 399.175354,43.776623 
	C406.724487,50.267620 414.584015,47.719231 423.622437,48.530350 
	C413.499359,36.282032 402.137848,28.040548 388.138550,23.473473 
	C374.519714,19.030512 360.456970,20.222574 345.500000,20.006924 
M372.500366,167.588028 
	C347.132690,167.588028 321.765015,167.588028 296.397339,167.588028 
	C296.128326,168.080231 295.859314,168.572418 295.590302,169.064621 
	C298.505463,172.566177 300.923737,176.714371 304.448364,179.422775 
	C310.213013,183.852448 316.611084,187.491837 322.896423,191.202988 
	C337.375336,199.752060 347.206940,211.610641 348.374695,228.855576 
	C349.250397,241.786957 348.970856,254.796875 349.191193,267.772064 
	C349.229706,270.040527 349.196655,272.310211 349.196655,274.485229 
	C358.328461,274.485229 366.902527,274.485229 375.739990,274.485229 
	C375.739990,272.134766 375.757080,270.011200 375.737152,267.887970 
	C375.624634,255.905518 375.158630,243.914383 375.463043,231.942734 
	C375.958618,212.456543 385.873505,198.774353 402.777161,189.764236 
	C408.209106,186.868851 413.767578,184.185150 419.041412,181.026108 
	C424.288666,177.882996 428.772156,173.813293 432.329254,167.588913 
	C412.072662,167.588913 392.786530,167.588913 372.500366,167.588028 
M407.499908,152.175827 
	C414.325317,152.174179 421.150696,152.171539 427.976105,152.171066 
	C439.360229,152.170303 439.362854,152.171234 440.839905,140.883469 
	C440.879456,140.581558 440.704132,140.251541 440.568695,139.680359 
	C390.165161,139.680359 339.709595,139.680359 289.345337,139.680359 
	C289.345337,144.008347 289.345337,147.923462 289.345337,152.174133 
	C328.640778,152.174133 367.570343,152.174133 407.499908,152.175827 
M245.233017,162.499802 
	C245.233017,194.408340 245.233017,226.316879 245.233017,258.454803 
	C249.712204,258.454803 253.612045,258.454803 257.661713,258.454803 
	C257.661713,208.870468 257.661713,159.556976 257.661713,110.286140 
	C253.378815,110.286140 249.482651,110.286140 245.231201,110.286140 
	C245.231201,127.600533 245.231201,144.550156 245.233017,162.499802 
M263.489807,290.826294 
	C266.818298,290.826416 270.147095,290.856781 273.475189,290.820282 
	C280.191528,290.746613 284.545441,287.045013 284.674652,281.344055 
	C284.808105,275.455780 280.418793,271.620850 273.330750,271.602478 
	C258.852081,271.564941 244.373169,271.578461 229.894440,271.613281 
	C223.044754,271.629761 218.864059,275.207764 218.766693,281.009857 
	C218.666321,286.992584 222.944687,290.773834 230.040848,290.808380 
	C240.858109,290.861053 251.675812,290.824860 263.489807,290.826294 
M113.183823,103.499893 
	C113.183823,112.550446 113.183823,121.601006 113.183823,130.651566 
	C113.670158,130.880142 114.156494,131.108719 114.642838,131.337296 
	C124.196686,124.419662 133.750534,117.502037 143.617905,110.357407 
	C133.739807,98.588165 124.402161,87.462845 115.064522,76.337524 
	C114.437737,76.649376 113.810959,76.961235 113.184174,77.273087 
	C113.184174,85.682030 113.184174,94.090965 113.183823,103.499893 
M242.488174,62.796497 
	C235.532852,67.403625 233.107300,73.987572 235.039658,81.859932 
	C236.619888,88.297684 240.888306,92.668755 247.609451,93.983505 
	C255.308914,95.489632 262.340027,92.252914 265.918457,85.828285 
	C269.557434,79.294968 268.649475,71.283073 263.657501,65.877060 
	C258.271912,60.044811 251.079300,58.825558 242.488174,62.796497 
M443.047150,69.807320 
	C443.190338,68.027473 443.333496,66.247635 443.503937,64.128761 
	C438.671661,64.128761 434.121735,64.128761 429.280853,64.128761 
	C429.280853,84.182465 429.280853,104.034668 429.280853,124.110275 
	C432.501160,124.110275 435.570343,124.110275 438.013916,124.110275 
	C439.685944,106.040062 441.321686,88.362366 443.047150,69.807320 
M289.832306,231.521667 
	C286.630341,232.485748 283.428406,233.449829 280.226440,234.413910 
	C280.241608,235.080338 280.256744,235.746765 280.271881,236.413208 
	C283.509766,237.306534 286.699707,238.498123 289.996033,239.027557 
	C295.834686,239.965302 299.173004,243.012863 300.297882,248.897095 
	C301.019562,252.672195 302.410278,256.319397 303.501099,260.023956 
	C304.029144,260.013947 304.557220,260.003937 305.085266,259.993896 
	C306.118011,256.247925 307.315857,252.537994 308.144226,248.747360 
	C309.341644,243.268112 312.278625,239.926071 318.038269,239.022690 
	C321.325134,238.507141 324.505249,237.310928 327.733429,236.421188 
	C327.746399,235.732910 327.759338,235.044632 327.772278,234.356369 
	C324.572052,233.378952 321.431549,232.010040 318.158356,231.510544 
	C312.411621,230.633606 309.362549,227.448685 308.115326,221.950531 
	C307.263092,218.193604 306.036072,214.521667 304.976624,210.811737 
	C304.506775,210.819229 304.036926,210.826721 303.567078,210.834198 
	C302.452393,214.575363 301.072144,218.261734 300.286377,222.070755 
	C299.160828,227.526718 296.062805,230.562805 289.832306,231.521667 
M349.051819,88.500008 
	C349.051819,100.368347 349.051819,112.236679 349.051819,124.133102 
	C352.716431,124.133102 355.639496,124.133102 358.678558,124.133102 
	C358.678558,103.987358 358.678558,84.140717 358.678558,64.212326 
	C355.346863,64.212326 352.335144,64.212326 349.051636,64.212326 
	C349.051636,72.254646 349.051636,79.877342 349.051819,88.500008 
M338.854950,68.685852 
	C338.767700,67.228310 338.680420,65.770775 338.587555,64.219887 
	C335.242523,64.219887 332.218689,64.219887 329.148254,64.219887 
	C329.148254,84.405510 329.148254,104.164589 329.148254,124.014748 
	C332.481506,124.014748 335.528931,124.014748 338.853027,124.014748 
	C338.853027,105.621162 338.853027,87.637001 338.854950,68.685852 
M388.867981,117.401321 
	C388.867981,119.542976 388.867981,121.684639 388.867981,124.119080 
	C392.324921,124.119080 395.395691,124.119080 398.619507,124.119080 
	C398.619507,103.979652 398.619507,84.117531 398.619507,64.196022 
	C395.257141,64.196022 392.217499,64.196022 388.866974,64.196022 
	C388.866974,81.864777 388.866974,99.143654 388.867981,117.401321 
M319.198242,67.624771 
	C318.636719,63.260166 317.349152,62.839657 309.398132,64.452347 
	C309.398132,84.324318 309.398132,104.204674 309.398132,124.160904 
	C312.719757,124.160904 315.660522,124.160904 319.197723,124.160904 
	C319.197723,105.475754 319.197723,87.037239 319.198242,67.624771 
M299.090118,107.498489 
	C299.090118,93.092560 299.090118,78.686630 299.090118,64.163124 
	C295.249634,64.163124 292.034668,64.163124 288.925415,64.163124 
	C288.925415,84.371376 288.925415,104.223167 288.925415,124.119377 
	C292.398071,124.119377 295.477478,124.119377 299.089661,124.119377 
	C299.089661,118.718521 299.089661,113.607864 299.090118,107.498489 
M378.978088,85.500137 
	C378.978088,78.392288 378.978088,71.284439 378.978088,64.189667 
	C375.276123,64.189667 372.222076,64.189667 369.077393,64.189667 
	C369.077393,84.328056 369.077393,104.079308 369.077393,124.120956 
	C372.393860,124.120956 375.452393,124.120956 378.978149,124.120956 
	C378.978149,111.407585 378.978149,98.953819 378.978088,85.500137 
M408.976746,96.500000 
	C408.976746,105.720917 408.976746,114.941841 408.976746,124.085556 
	C412.688324,124.085556 415.605103,124.085556 418.683411,124.085556 
	C418.683411,103.897774 418.683411,84.053123 418.683411,64.221268 
	C415.323364,64.221268 412.292999,64.221268 408.977936,64.221268 
	C408.977936,74.928436 408.977936,85.214218 408.976746,96.500000 
z"/>
<path fill="#9A9A9A" opacity="1.000000" stroke="none" 
	d="
M88.759995,170.836456 
	C111.928818,153.387512 134.926331,136.313644 157.617065,118.841393 
	C167.748260,111.040199 168.079788,104.643967 160.008926,94.766518 
	C152.105164,85.093552 144.127167,75.481262 136.204803,65.823433 
	C135.195145,64.592613 134.324722,63.247574 132.545883,60.789104 
	C140.955795,60.789104 148.310608,59.794533 155.300552,60.969917 
	C179.172333,64.984024 197.077530,77.282921 205.070847,100.997597 
	C209.730011,114.820541 207.336807,128.690582 202.535782,142.127609 
	C196.094879,160.154358 189.501480,178.126938 182.913193,196.100647 
	C177.446716,211.013947 175.469940,226.300217 176.362152,242.209717 
	C178.553482,281.284454 180.262482,320.386353 182.132568,359.478912 
	C182.816925,373.784943 183.604782,388.090698 183.946060,402.406097 
	C184.083878,408.186340 183.906113,414.173279 182.564545,419.751740 
	C178.747391,435.624237 163.982819,446.106323 148.956055,444.333984 
	C130.545197,442.162537 119.149162,430.478027 119.225647,412.342346 
	C119.300018,394.704681 120.340088,377.062317 121.281334,359.439331 
	C122.382347,338.824951 123.940956,318.235352 125.105957,297.623962 
	C126.299309,276.510803 127.015160,255.368240 128.422516,234.270737 
	C129.093643,224.210236 126.817528,215.276489 120.291756,207.807022 
	C110.658875,196.781128 100.532051,186.187698 90.703346,175.330643 
	C89.657059,174.174896 89.196205,172.489166 88.759995,170.836456 
M181.025009,172.750595 
	C175.697144,165.098465 170.422852,157.408234 165.020615,149.808945 
	C161.946167,145.484131 159.504318,144.895889 155.388763,147.911224 
	C146.793716,154.208496 138.297699,160.649902 129.941635,167.260406 
	C126.130394,170.275497 125.416740,175.056854 128.370163,178.843704 
	C134.203003,186.322495 140.337494,193.573608 146.534042,200.757751 
	C149.374634,204.051056 153.045151,204.218063 156.336365,201.483902 
	C164.016891,195.103409 171.746582,188.744553 178.932510,181.832352 
	C180.751587,180.082520 180.605057,176.289230 181.025009,172.750595 
M158.568787,402.596130 
	C149.874115,398.836365 141.740326,401.502136 138.406342,409.204132 
	C135.318939,416.336456 138.447403,424.189667 145.701218,427.516174 
	C152.032974,430.419891 159.290512,428.275330 163.202209,422.344849 
	C167.403336,415.975494 165.910645,408.703827 158.568787,402.596130 
z"/>
<path fill="#969797" opacity="1.000000" stroke="none" 
	d="
M422.174133,268.999878 
	C422.181671,251.667664 422.376495,234.832123 422.076355,218.005402 
	C421.993347,213.351181 423.286896,210.076797 426.908905,207.337265 
	C429.380920,205.467545 431.548004,203.194656 434.600708,200.421295 
	C434.744598,202.918060 434.912903,204.477448 434.913086,206.036850 
	C434.920532,274.532440 434.979584,343.028107 434.882568,411.523560 
	C434.824585,452.454498 402.355133,484.905670 361.511017,484.940613 
	C290.682312,485.001221 219.853546,484.995697 149.024872,484.941315 
	C107.609535,484.909515 74.869232,452.636444 74.731049,411.215668 
	C74.501991,342.554230 74.651100,273.891541 74.656700,205.229355 
	C74.656807,203.945068 74.852821,202.660782 75.038063,200.386581 
	C79.378632,204.491287 83.338181,207.792130 86.677032,211.632584 
	C87.852837,212.985046 87.812881,215.658554 87.814629,217.729309 
	C87.867538,280.391876 87.912323,343.054596 87.805969,405.717010 
	C87.785500,417.776703 89.588676,429.357788 95.630501,439.875214 
	C107.186462,459.991425 124.779320,471.010010 147.938736,471.125732 
	C219.098862,471.481415 290.263184,471.524017 361.423157,471.161316 
	C395.918213,470.985474 421.245361,446.028442 421.749908,411.480438 
	C422.440979,364.161621 422.082977,316.827484 422.174133,268.999878 
z"/>
<path fill="#999A9A" opacity="1.000000" stroke="none" 
	d="
M343.711609,290.596252 
	C354.888306,290.348663 365.652924,290.194580 376.417755,290.056854 
	C379.739655,290.014374 380.925110,291.693604 381.157806,294.995605 
	C383.766418,332.013824 386.574402,369.018097 389.129608,406.039886 
	C389.481354,411.136475 389.475830,416.466522 388.387848,421.414062 
	C385.277405,435.558685 373.543274,444.527496 359.995331,443.868683 
	C346.199310,443.197845 334.486481,432.685638 333.214233,418.155579 
	C332.320496,407.948029 332.976257,397.542297 333.651001,387.271759 
	C335.614990,357.377319 337.893890,327.503113 340.195801,297.632263 
	C340.387207,295.148651 339.273560,291.644653 343.711609,290.596252 
M373.106903,421.369019 
	C375.919769,414.561005 374.963989,408.769440 370.318787,404.473846 
	C366.160553,400.628571 359.830109,399.667816 354.982330,402.146301 
	C349.896423,404.746490 346.858337,410.076385 347.279266,415.660431 
	C347.726288,421.590668 351.588745,426.455414 357.214020,428.173157 
	C363.016357,429.944977 368.039337,427.961609 373.106903,421.369019 
z"/>
<path fill="#9A9A9A" opacity="1.000000" stroke="none" 
	d="
M250.310135,308.134949 
	C257.455261,307.878448 261.917297,311.793365 265.752075,316.599457 
	C276.902100,330.573700 281.625916,346.817291 281.910248,364.424988 
	C282.154907,379.573792 282.214569,394.734741 281.896759,409.880646 
	C281.634460,422.382233 277.149719,433.075897 265.897156,439.726532 
	C249.420853,449.464600 226.516739,439.364532 224.423538,419.247742 
	C221.664215,392.729401 219.955994,365.665405 226.155746,339.317139 
	C228.164139,330.781677 233.914261,322.888794 239.013184,315.426483 
	C241.298096,312.082520 246.193970,310.522583 250.310135,308.134949 
M250.915863,422.738434 
	C254.926147,423.370453 257.748260,421.555664 257.689575,417.681519 
	C257.658508,415.630676 255.630615,412.689758 253.757080,411.880646 
	C252.278458,411.242096 248.788208,412.651855 247.728348,414.202454 
	C245.592560,417.327209 246.673843,420.481384 250.915863,422.738434 
M248.285889,388.247314 
	C251.371704,390.666687 254.557053,390.336761 256.273346,387.087952 
	C257.158020,385.413361 256.737366,381.875244 255.472061,380.574493 
	C254.247803,379.315857 250.685883,378.912933 249.033783,379.792603 
	C245.884323,381.469543 245.182617,384.588165 248.285889,388.247314 
z"/>
<path fill="#999999" opacity="1.000000" stroke="none" 
	d="
M346.000000,20.006626 
	C360.456970,20.222574 374.519714,19.030512 388.138550,23.473473 
	C402.137848,28.040548 413.499359,36.282032 423.622437,48.530350 
	C414.584015,47.719231 406.724487,50.267620 399.175354,43.776623 
	C389.922241,35.820469 377.919769,33.609238 365.872498,33.575848 
	C313.050293,33.429436 260.227478,33.469017 207.404953,33.511139 
	C205.652420,33.512535 203.915024,34.511406 202.145142,34.616272 
	C198.853943,34.811275 195.539825,34.786407 192.244156,34.645256 
	C191.146835,34.598263 190.071365,33.559723 188.994995,33.575962 
	C170.686188,33.852276 152.211258,32.791351 134.110428,34.909412 
	C107.022217,38.079121 89.058273,59.012241 88.054794,86.310570 
	C87.473633,102.120255 87.612503,117.973633 88.009415,133.792740 
	C88.148682,139.343628 86.645142,142.932983 81.679665,145.314941 
	C79.522102,146.349945 77.654282,147.988922 74.974083,149.818222 
	C74.840126,147.255432 74.686180,145.663025 74.684471,144.070450 
	C74.665039,125.907372 74.602898,107.743980 74.679756,89.581215 
	C74.853058,48.631245 102.758354,20.519182 143.758102,20.039875 
	C157.420242,19.880159 171.087708,20.126465 184.747864,19.896866 
	C187.130554,19.856819 189.763245,18.789701 191.799713,17.460424 
	C195.680969,14.927010 199.094208,15.194864 202.936020,17.477835 
	C205.051559,18.734982 207.645737,19.884178 210.027939,19.891806 
	C255.184952,20.036388 300.342529,20.003157 346.000000,20.006626 
z"/>
<path fill="#9A9A9B" opacity="1.000000" stroke="none" 
	d="
M373.000366,167.588470 
	C392.786530,167.588913 412.072662,167.588913 432.329254,167.588913 
	C428.772156,173.813293 424.288666,177.882996 419.041412,181.026108 
	C413.767578,184.185150 408.209106,186.868851 402.777161,189.764236 
	C385.873505,198.774353 375.958618,212.456543 375.463043,231.942734 
	C375.158630,243.914383 375.624634,255.905518 375.737152,267.887970 
	C375.757080,270.011200 375.739990,272.134766 375.739990,274.485229 
	C366.902527,274.485229 358.328461,274.485229 349.196655,274.485229 
	C349.196655,272.310211 349.229706,270.040527 349.191193,267.772064 
	C348.970856,254.796875 349.250397,241.786957 348.374695,228.855576 
	C347.206940,211.610641 337.375336,199.752060 322.896423,191.202988 
	C316.611084,187.491837 310.213013,183.852448 304.448364,179.422775 
	C300.923737,176.714371 298.505463,172.566177 295.590302,169.064621 
	C295.859314,168.572418 296.128326,168.080231 296.397339,167.588028 
	C321.765015,167.588028 347.132690,167.588028 373.000366,167.588470 
z"/>
<path fill="#959596" opacity="1.000000" stroke="none" 
	d="
M406.999878,152.174988 
	C367.570343,152.174133 328.640778,152.174133 289.345337,152.174133 
	C289.345337,147.923462 289.345337,144.008347 289.345337,139.680359 
	C339.709595,139.680359 390.165161,139.680359 440.568695,139.680359 
	C440.704132,140.251541 440.879456,140.581558 440.839905,140.883469 
	C439.362854,152.171234 439.360229,152.170303 427.976105,152.171066 
	C421.150696,152.171539 414.325317,152.174179 406.999878,152.174988 
z"/>
<path fill="#959596" opacity="1.000000" stroke="none" 
	d="
M245.232117,161.999786 
	C245.231201,144.550156 245.231201,127.600533 245.231201,110.286140 
	C249.482651,110.286140 253.378815,110.286140 257.661713,110.286140 
	C257.661713,159.556976 257.661713,208.870468 257.661713,258.454803 
	C253.612045,258.454803 249.712204,258.454803 245.233017,258.454803 
	C245.233017,226.316879 245.233017,194.408340 245.232117,161.999786 
z"/>
<path fill="#989899" opacity="1.000000" stroke="none" 
	d="
M262.991577,290.826355 
	C251.675812,290.824860 240.858109,290.861053 230.040848,290.808380 
	C222.944687,290.773834 218.666321,286.992584 218.766693,281.009857 
	C218.864059,275.207764 223.044754,271.629761 229.894440,271.613281 
	C244.373169,271.578461 258.852081,271.564941 273.330750,271.602478 
	C280.418793,271.620850 284.808105,275.455780 284.674652,281.344055 
	C284.545441,287.045013 280.191528,290.746613 273.475189,290.820282 
	C270.147095,290.856781 266.818298,290.826416 262.991577,290.826355 
z"/>
<path fill="#969697" opacity="1.000000" stroke="none" 
	d="
M113.183998,102.999893 
	C113.184174,94.090965 113.184174,85.682030 113.184174,77.273087 
	C113.810959,76.961235 114.437737,76.649376 115.064522,76.337524 
	C124.402161,87.462845 133.739807,98.588165 143.617905,110.357407 
	C133.750534,117.502037 124.196686,124.419662 114.642838,131.337296 
	C114.156494,131.108719 113.670158,130.880142 113.183823,130.651566 
	C113.183823,121.601006 113.183823,112.550446 113.183998,102.999893 
z"/>
<path fill="#969697" opacity="1.000000" stroke="none" 
	d="
M242.806473,62.596474 
	C251.079300,58.825558 258.271912,60.044811 263.657501,65.877060 
	C268.649475,71.283073 269.557434,79.294968 265.918457,85.828285 
	C262.340027,92.252914 255.308914,95.489632 247.609451,93.983505 
	C240.888306,92.668755 236.619888,88.297684 235.039658,81.859932 
	C233.107300,73.987572 235.532852,67.403625 242.806473,62.596474 
M247.384155,82.107658 
	C252.352615,84.434799 256.361267,83.449425 256.808502,79.269096 
	C257.047455,77.035469 255.962708,73.608902 254.299576,72.525246 
	C252.705917,71.486847 248.994324,71.971542 247.280106,73.234512 
	C244.429016,75.335037 244.483078,78.673195 247.384155,82.107658 
z"/>
<path fill="#989898" opacity="1.000000" stroke="none" 
	d="
M443.002289,70.245995 
	C441.321686,88.362366 439.685944,106.040062 438.013916,124.110275 
	C435.570343,124.110275 432.501160,124.110275 429.280853,124.110275 
	C429.280853,104.034668 429.280853,84.182465 429.280853,64.128761 
	C434.121735,64.128761 438.671661,64.128761 443.503937,64.128761 
	C443.333496,66.247635 443.190338,68.027473 443.002289,70.245995 
z"/>
<path fill="#959596" opacity="1.000000" stroke="none" 
	d="
M290.215729,231.404465 
	C296.062805,230.562805 299.160828,227.526718 300.286377,222.070755 
	C301.072144,218.261734 302.452393,214.575363 303.567078,210.834198 
	C304.036926,210.826721 304.506775,210.819229 304.976624,210.811737 
	C306.036072,214.521667 307.263092,218.193604 308.115326,221.950531 
	C309.362549,227.448685 312.411621,230.633606 318.158356,231.510544 
	C321.431549,232.010040 324.572052,233.378952 327.772278,234.356369 
	C327.759338,235.044632 327.746399,235.732910 327.733429,236.421188 
	C324.505249,237.310928 321.325134,238.507141 318.038269,239.022690 
	C312.278625,239.926071 309.341644,243.268112 308.144226,248.747360 
	C307.315857,252.537994 306.118011,256.247925 305.085266,259.993896 
	C304.557220,260.003937 304.029144,260.013947 303.501099,260.023956 
	C302.410278,256.319397 301.019562,252.672195 300.297882,248.897095 
	C299.173004,243.012863 295.834686,239.965302 289.996033,239.027557 
	C286.699707,238.498123 283.509766,237.306534 280.271881,236.413208 
	C280.256744,235.746765 280.241608,235.080338 280.226440,234.413910 
	C283.428406,233.449829 286.630341,232.485748 290.215729,231.404465 
z"/>
<path fill="#969797" opacity="1.000000" stroke="none" 
	d="
M349.051727,88.000015 
	C349.051636,79.877342 349.051636,72.254646 349.051636,64.212326 
	C352.335144,64.212326 355.346863,64.212326 358.678558,64.212326 
	C358.678558,84.140717 358.678558,103.987358 358.678558,124.133102 
	C355.639496,124.133102 352.716431,124.133102 349.051819,124.133102 
	C349.051819,112.236679 349.051819,100.368347 349.051727,88.000015 
z"/>
<path fill="#969697" opacity="1.000000" stroke="none" 
	d="
M338.854004,69.169342 
	C338.853027,87.637001 338.853027,105.621162 338.853027,124.014748 
	C335.528931,124.014748 332.481506,124.014748 329.148254,124.014748 
	C329.148254,104.164589 329.148254,84.405510 329.148254,64.219887 
	C332.218689,64.219887 335.242523,64.219887 338.587555,64.219887 
	C338.680420,65.770775 338.767700,67.228310 338.854004,69.169342 
z"/>
<path fill="#989899" opacity="1.000000" stroke="none" 
	d="
M388.867493,116.911926 
	C388.866974,99.143654 388.866974,81.864777 388.866974,64.196022 
	C392.217499,64.196022 395.257141,64.196022 398.619507,64.196022 
	C398.619507,84.117531 398.619507,103.979652 398.619507,124.119080 
	C395.395691,124.119080 392.324921,124.119080 388.867981,124.119080 
	C388.867981,121.684639 388.867981,119.542976 388.867493,116.911926 
z"/>
<path fill="#999999" opacity="1.000000" stroke="none" 
	d="
M319.197998,68.111755 
	C319.197723,87.037239 319.197723,105.475754 319.197723,124.160904 
	C315.660522,124.160904 312.719757,124.160904 309.398132,124.160904 
	C309.398132,104.204674 309.398132,84.324318 309.398132,64.452347 
	C317.349152,62.839657 318.636719,63.260166 319.197998,68.111755 
z"/>
<path fill="#9A9A9B" opacity="1.000000" stroke="none" 
	d="
M299.089905,107.997849 
	C299.089661,113.607864 299.089661,118.718521 299.089661,124.119377 
	C295.477478,124.119377 292.398071,124.119377 288.925415,124.119377 
	C288.925415,104.223167 288.925415,84.371376 288.925415,64.163124 
	C292.034668,64.163124 295.249634,64.163124 299.090118,64.163124 
	C299.090118,78.686630 299.090118,93.092560 299.089905,107.997849 
z"/>
<path fill="#999A9A" opacity="1.000000" stroke="none" 
	d="
M378.978119,86.000092 
	C378.978149,98.953819 378.978149,111.407585 378.978149,124.120956 
	C375.452393,124.120956 372.393860,124.120956 369.077393,124.120956 
	C369.077393,104.079308 369.077393,84.328056 369.077393,64.189667 
	C372.222076,64.189667 375.276123,64.189667 378.978088,64.189667 
	C378.978088,71.284439 378.978088,78.392288 378.978119,86.000092 
z"/>
<path fill="#989898" opacity="1.000000" stroke="none" 
	d="
M408.977356,96.000000 
	C408.977936,85.214218 408.977936,74.928436 408.977936,64.221268 
	C412.292999,64.221268 415.323364,64.221268 418.683411,64.221268 
	C418.683411,84.053123 418.683411,103.897774 418.683411,124.085556 
	C415.605103,124.085556 412.688324,124.085556 408.976746,124.085556 
	C408.976746,114.941841 408.976746,105.720917 408.977356,96.000000 
z"/>
<path fill="#050505" opacity="1.000000" stroke="none" 
	d="
M181.193390,173.092773 
	C180.605057,176.289230 180.751587,180.082520 178.932510,181.832352 
	C171.746582,188.744553 164.016891,195.103409 156.336365,201.483902 
	C153.045151,204.218063 149.374634,204.051056 146.534042,200.757751 
	C140.337494,193.573608 134.203003,186.322495 128.370163,178.843704 
	C125.416740,175.056854 126.130394,170.275497 129.941635,167.260406 
	C138.297699,160.649902 146.793716,154.208496 155.388763,147.911224 
	C159.504318,144.895889 161.946167,145.484131 165.020615,149.808945 
	C170.422852,157.408234 175.697144,165.098465 181.193390,173.092773 
M165.292068,175.298615 
	C167.049133,176.084763 168.806198,176.870926 170.563232,177.657089 
	C170.190796,175.756638 170.324966,173.526184 169.344833,172.021622 
	C167.008011,168.434479 164.362885,164.979935 161.394714,161.903671 
	C160.084564,160.545807 157.687714,160.236435 155.784210,159.451065 
	C156.232529,161.305740 156.228088,163.461411 157.220551,164.954361 
	C159.500992,168.384781 162.266922,171.492462 165.292068,175.298615 
M152.796127,170.669662 
	C152.253494,170.039810 151.816742,169.049591 151.146881,168.852798 
	C149.605713,168.400024 147.951157,168.333160 146.342621,168.109680 
	C146.649673,169.566010 146.553802,171.305084 147.339874,172.425262 
	C149.628632,175.686829 152.106079,178.858368 154.860657,181.728180 
	C155.852997,182.762024 157.843887,182.837433 159.379059,183.350220 
	C159.233231,181.626358 159.620987,179.586334 158.827103,178.246475 
	C157.317719,175.699066 155.132492,173.552124 152.796127,170.669662 
M141.543015,183.992004 
	C143.207291,185.836533 144.748962,187.820297 146.601288,189.451233 
	C147.263397,190.034195 148.941696,190.198669 149.669708,189.755341 
	C150.339691,189.347321 150.942902,187.411484 150.569107,186.929962 
	C147.324997,182.750992 143.920425,178.687927 140.366638,174.768951 
	C139.918228,174.274475 137.769089,174.427155 137.401443,174.962418 
	C136.836914,175.784317 136.680130,177.452560 137.159393,178.308762 
	C138.200012,180.167831 139.752350,181.740463 141.543015,183.992004 
z"/>
<path fill="#040404" opacity="1.000000" stroke="none" 
	d="
M158.899689,402.796631 
	C165.910645,408.703827 167.403336,415.975494 163.202209,422.344849 
	C159.290512,428.275330 152.032974,430.419891 145.701218,427.516174 
	C138.447403,424.189667 135.318939,416.336456 138.406342,409.204132 
	C141.740326,401.502136 149.874115,398.836365 158.899689,402.796631 
z"/>
<path fill="#040404" opacity="1.000000" stroke="none" 
	d="
M372.928894,421.703735 
	C368.039337,427.961609 363.016357,429.944977 357.214020,428.173157 
	C351.588745,426.455414 347.726288,421.590668 347.279266,415.660431 
	C346.858337,410.076385 349.896423,404.746490 354.982330,402.146301 
	C359.830109,399.667816 366.160553,400.628571 370.318787,404.473846 
	C374.963989,408.769440 375.919769,414.561005 372.928894,421.703735 
z"/>
<path fill="#0A0A0A" opacity="1.000000" stroke="none" 
	d="
M250.551544,422.586731 
	C246.673843,420.481384 245.592560,417.327209 247.728348,414.202454 
	C248.788208,412.651855 252.278458,411.242096 253.757080,411.880646 
	C255.630615,412.689758 257.658508,415.630676 257.689575,417.681519 
	C257.748260,421.555664 254.926147,423.370453 250.551544,422.586731 
z"/>
<path fill="#0A0A0A" opacity="1.000000" stroke="none" 
	d="
M248.022644,387.986115 
	C245.182617,384.588165 245.884323,381.469543 249.033783,379.792603 
	C250.685883,378.912933 254.247803,379.315857 255.472061,380.574493 
	C256.737366,381.875244 257.158020,385.413361 256.273346,387.087952 
	C254.557053,390.336761 251.371704,390.666687 248.022644,387.986115 
z"/>
<path fill="#0A0A0A" opacity="1.000000" stroke="none" 
	d="
M247.097351,81.867218 
	C244.483078,78.673195 244.429016,75.335037 247.280106,73.234512 
	C248.994324,71.971542 252.705917,71.486847 254.299576,72.525246 
	C255.962708,73.608902 257.047455,77.035469 256.808502,79.269096 
	C256.361267,83.449425 252.352615,84.434799 247.097351,81.867218 
z"/>
<path fill="#909090" opacity="1.000000" stroke="none" 
	d="
M165.063934,175.014877 
	C162.266922,171.492462 159.500992,168.384781 157.220551,164.954361 
	C156.228088,163.461411 156.232529,161.305740 155.784210,159.451050 
	C157.687714,160.236435 160.084564,160.545807 161.394714,161.903671 
	C164.362885,164.979935 167.008011,168.434479 169.344833,172.021622 
	C170.324966,173.526184 170.190796,175.756638 170.563232,177.657089 
	C168.806198,176.870926 167.049133,176.084763 165.063934,175.014877 
z"/>
<path fill="#909090" opacity="1.000000" stroke="none" 
	d="
M153.012039,170.954254 
	C155.132492,173.552124 157.317719,175.699066 158.827103,178.246475 
	C159.620987,179.586334 159.233231,181.626358 159.379059,183.350220 
	C157.843887,182.837433 155.852997,182.762024 154.860657,181.728180 
	C152.106079,178.858368 149.628632,175.686829 147.339874,172.425262 
	C146.553802,171.305084 146.649673,169.566010 146.342621,168.109680 
	C147.951157,168.333160 149.605713,168.400024 151.146881,168.852798 
	C151.816742,169.049591 152.253494,170.039810 153.012039,170.954254 
z"/>
<path fill="#909090" opacity="1.000000" stroke="none" 
	d="
M141.319244,183.711090 
	C139.752350,181.740463 138.200012,180.167831 137.159393,178.308762 
	C136.680130,177.452560 136.836914,175.784317 137.401443,174.962418 
	C137.769089,174.427155 139.918228,174.274475 140.366638,174.768951 
	C143.920425,178.687927 147.324997,182.750992 150.569107,186.929962 
	C150.942902,187.411484 150.339691,189.347321 149.669708,189.755341 
	C148.941696,190.198669 147.263397,190.034195 146.601288,189.451233 
	C144.748962,187.820297 143.207291,185.836533 141.319244,183.711090 
z"/>
</svg>